<svg xmlns="http://www.w3.org/2000/svg" width="194" height="198" viewBox="0 0 194 198" fill="none">
<g id="Vector">
<mask id="path-1-inside-1_0_28" fill="white">
<path fill-rule="evenodd" clip-rule="evenodd" d="M176.53 133.666C164.692 140.412 153.999 148.978 144.848 159.049L143.023 161.191L141.263 159.049C132.112 148.978 121.419 140.412 109.581 133.666L107.691 132.563C117.052 125.451 124.796 116.447 130.414 106.142C136.031 95.8372 139.396 84.465 140.285 72.7731C140.705 68.2168 140.705 63.6317 140.285 59.0754C139.595 52.1613 137.904 45.3829 135.265 38.9508C130.934 27.5348 123.224 17.6979 113.154 10.7424C103.085 3.78689 91.1321 0.0408105 78.8777 0H78.4214C66.1691 0.0498466 54.2202 3.79952 44.1527 10.7538C34.0851 17.7081 26.3726 27.54 22.0336 38.9508C19.4155 45.3857 17.7468 52.1642 17.0793 59.0754C16.6231 63.63 16.6231 68.2185 17.0793 72.7731C17.9768 84.4631 21.3444 95.8324 26.9614 106.136C32.5784 116.44 40.3181 125.445 49.6734 132.563L47.8481 133.666C36.0104 140.412 25.3179 148.978 16.1667 159.049C6.25918 169.68 0.521153 183.505 0 198H29.1391C29.791 184.562 41.3293 171.578 62.9066 158.595C68.1868 155.414 73.5974 152.103 79.0732 149.636C84.5491 152.428 89.8945 155.414 95.1747 158.53C116.752 171.513 128.356 184.497 128.942 198H158.603C159.385 184.237 173.857 165.087 194 157.751V124.448C187.612 127.174 182.005 130.355 176.53 133.666ZM78.7473 116.917C69.7395 112.729 61.9904 106.264 56.2718 98.1659C50.5532 90.0677 47.0646 80.619 46.1532 70.7606C45.8647 67.8464 45.8647 64.9109 46.1532 61.9967C46.535 57.8509 47.5232 53.783 49.0867 49.9219C51.2907 43.8558 55.3236 38.6164 60.6332 34.9209C65.9428 31.2254 72.2695 29.2545 78.7473 29.278C85.1605 29.3251 91.405 31.3294 96.6387 35.0208C101.872 38.7121 105.844 43.913 108.017 49.9219C109.602 53.7799 110.612 57.8478 111.015 61.9967C111.304 64.9109 111.304 67.8464 111.015 70.7606C110.098 80.6085 106.614 90.0471 100.908 98.1426C95.2032 106.238 87.4744 112.71 78.4866 116.917H78.7473Z"/>
</mask>
<path fill-rule="evenodd" clip-rule="evenodd" d="M176.53 133.666C164.692 140.412 153.999 148.978 144.848 159.049L143.023 161.191L141.263 159.049C132.112 148.978 121.419 140.412 109.581 133.666L107.691 132.563C117.052 125.451 124.796 116.447 130.414 106.142C136.031 95.8372 139.396 84.465 140.285 72.7731C140.705 68.2168 140.705 63.6317 140.285 59.0754C139.595 52.1613 137.904 45.3829 135.265 38.9508C130.934 27.5348 123.224 17.6979 113.154 10.7424C103.085 3.78689 91.1321 0.0408105 78.8777 0H78.4214C66.1691 0.0498466 54.2202 3.79952 44.1527 10.7538C34.0851 17.7081 26.3726 27.54 22.0336 38.9508C19.4155 45.3857 17.7468 52.1642 17.0793 59.0754C16.6231 63.63 16.6231 68.2185 17.0793 72.7731C17.9768 84.4631 21.3444 95.8324 26.9614 106.136C32.5784 116.44 40.3181 125.445 49.6734 132.563L47.8481 133.666C36.0104 140.412 25.3179 148.978 16.1667 159.049C6.25918 169.68 0.521153 183.505 0 198H29.1391C29.791 184.562 41.3293 171.578 62.9066 158.595C68.1868 155.414 73.5974 152.103 79.0732 149.636C84.5491 152.428 89.8945 155.414 95.1747 158.53C116.752 171.513 128.356 184.497 128.942 198H158.603C159.385 184.237 173.857 165.087 194 157.751V124.448C187.612 127.174 182.005 130.355 176.53 133.666ZM78.7473 116.917C69.7395 112.729 61.9904 106.264 56.2718 98.1659C50.5532 90.0677 47.0646 80.619 46.1532 70.7606C45.8647 67.8464 45.8647 64.9109 46.1532 61.9967C46.535 57.8509 47.5232 53.783 49.0867 49.9219C51.2907 43.8558 55.3236 38.6164 60.6332 34.9209C65.9428 31.2254 72.2695 29.2545 78.7473 29.278C85.1605 29.3251 91.405 31.3294 96.6387 35.0208C101.872 38.7121 105.844 43.913 108.017 49.9219C109.602 53.7799 110.612 57.8478 111.015 61.9967C111.304 64.9109 111.304 67.8464 111.015 70.7606C110.098 80.6085 106.614 90.0471 100.908 98.1426C95.2032 106.238 87.4744 112.71 78.4866 116.917H78.7473Z" fill="white" stroke="black" stroke-width="2" mask="url(#path-1-inside-1_0_28)"/>
</g>
</svg>